<svg width="0" height="0" class="hidden">
  <symbol version="1.1" xmlns="http://www.w3.org/2000/svg" xmlns:xlink="http://www.w3.org/1999/xlink" xmlnsSketch="http://www.bohemiancoding.com/sketch/ns" fill="#ffffff" stroke="#ffffff" viewBox="0 0 32 32" id="search">
    <g id="SVGRepo_bgCarrier" stroke-width="0"></g>
    <g id="SVGRepo_tracerCarrier" stroke-linecap="round" stroke-linejoin="round"></g>
    <g id="SVGRepo_iconCarrier">
      <title>search</title>
      <desc>Created with Sketch Beta.</desc>
      <defs></defs>
      <g id="Page-1" stroke="#ffffff" stroke-width="1" fill="#ffffff" fill-rule="evenodd" sketchType="MSPage">
        <g id="Icon-Set" sketchType="MSLayerGroup" transform="translate(-256.000000, -1139.000000)" fill="#ffffff">
          <path d="M269.46,1163.45 C263.17,1163.45 258.071,1158.44 258.071,1152.25 C258.071,1146.06 263.17,1141.04 269.46,1141.04 C275.75,1141.04 280.85,1146.06 280.85,1152.25 C280.85,1158.44 275.75,1163.45 269.46,1163.45 L269.46,1163.45 Z M287.688,1169.25 L279.429,1161.12 C281.591,1158.77 282.92,1155.67 282.92,1152.25 C282.92,1144.93 276.894,1139 269.46,1139 C262.026,1139 256,1144.93 256,1152.25 C256,1159.56 262.026,1165.49 269.46,1165.49 C272.672,1165.49 275.618,1164.38 277.932,1162.53 L286.224,1170.69 C286.629,1171.09 287.284,1171.09 287.688,1170.69 C288.093,1170.3 288.093,1169.65 287.688,1169.25 L287.688,1169.25 Z" id="search" sketchType="MSShapeGroup"></path>
        </g>
      </g>
    </g>
  </symbol>
  <symbol viewBox="0 0 0 0" id="sprites">
    <symbol fill="#ffffff" xmlns="http://www.w3.org/2000/svg" stroke="#ffffff" viewBox="0 0 256 256" id="logo-juce-white">
      <g id="SVGRepo_bgCarrier" stroke-width="0"></g>
      <g id="SVGRepo_tracerCarrier" stroke-linecap="round" stroke-linejoin="round"></g>
      <g id="SVGRepo_iconCarrier">
        <g fill-rule="evenodd">
          <path d="M128 226c-54.124 0-98-43.876-98-98s43.876-98 98-98 98 43.876 98 98-43.876 98-98 98zm0-7c50.258 0 91-40.742 91-91s-40.742-91-91-91-91 40.742-91 91 40.742 91 91 91z"></path>
          <path d="M52.163 94.493C56.357 84.463 62.375 78.633 64 76.984c1.625-1.648 3.932-.844 5.477 0 1.545.845 40.273 39.636 42.002 41.584 1.728 1.948 3.56 4.854-1.401 4.854-4.962 0-53.708-.426-57.915-.716-4.208-.291-5.45-2.745-5.45-4.841s1.255-13.341 5.45-23.372zM99.015 51.34c10.059-4.127 17.23-3.856 19.545-3.872 2.315-.016 3.377 2.183 3.873 3.872.495 1.69.855 56.835.7 59.434-.156 2.6-.113 5.483-3.621 1.974-3.509-3.508-37.677-38.278-40.446-41.458-2.77-3.181-1.913-5.795-.43-7.277 1.482-1.482 10.32-8.545 20.38-12.673zm61.492.823c10.03 4.194 15.86 10.212 17.509 11.837 1.648 1.625.844 3.932 0 5.477-.845 1.545-39.636 40.273-41.584 42.002-1.948 1.728-4.854 3.56-4.854-1.401 0-4.962.426-53.708.716-57.915.291-4.208 2.745-5.45 4.841-5.45s13.341 1.255 23.372 5.45zm43.153 46.852c4.127 10.059 3.856 17.23 3.872 19.545.016 2.315-2.183 3.377-3.872 3.873-1.69.495-56.835.855-59.434.7-2.6-.156-5.483-.113-1.974-3.621 3.508-3.509 38.278-37.677 41.458-40.446 3.181-2.77 5.795-1.913 7.277-.43 1.482 1.482 8.545 10.32 12.673 20.38zm-.823 62.492c-4.194 10.03-10.212 15.86-11.837 17.509-1.625 1.648-3.932.844-5.477 0-1.545-.845-40.273-39.636-42.002-41.584-1.728-1.948-3.56-4.854 1.401-4.854 4.962 0 53.708.426 57.915.716 4.208.291 5.45 2.745 5.45 4.841s-1.255 13.341-5.45 23.372zm-46.852 43.153c-10.059 4.127-17.23 3.856-19.545 3.872-2.315.016-3.377-2.183-3.873-3.872-.495-1.69-.855-56.835-.7-59.434.156-2.6.113-5.483 3.621-1.974 3.509 3.508 37.677 38.278 40.446 41.458 2.77 3.181 1.913 5.795.43 7.277-1.482 1.482-10.32 8.545-20.38 12.673zm-61.492-.823c-10.03-4.194-15.86-10.212-17.509-11.837-1.648-1.625-.844-3.932 0-5.477.845-1.545 39.636-40.273 41.584-42.002 1.948-1.728 4.854-3.56 4.854 1.401 0 4.962-.426 53.708-.716 57.915-.291 4.208-2.745 5.45-4.841 5.45s-13.341-1.255-23.372-5.45zM51.34 156.985c-4.127-10.059-3.856-17.23-3.872-19.545-.016-2.315 2.183-3.377 3.872-3.873 1.69-.495 56.835-.855 59.434-.7 2.6.156 5.483.113 1.974 3.621-3.508 3.509-38.278 37.677-41.458 40.446-3.181 2.77-5.795 1.913-7.277.43-1.482-1.482-8.545-10.32-12.673-20.38z"></path>
        </g>
      </g>
    </symbol>
    <symbol viewBox="0 0 0 0" id="sprites">
      <symbol fill="#2584ff" id="logo" xmlns="http://www.w3.org/2000/svg" viewBox="0 0 32 32">
        <defs></defs>
        <title>logo--yelp</title>
        <path d="M9.09,15.2458l4.6706,2.2777a1.0706,1.0706,0,0,1-.21,2.0011L8.5087,20.7818a1.0729,1.0729,0,0,1-1.3241-.921,9.2173,9.2173,0,0,1,.4213-3.9965A1.0706,1.0706,0,0,1,9.09,15.2458Z"></path>
        <path d="M10.96,24.8605l3.4763-3.8613a1.0707,1.0707,0,0,1,1.8657.7537l-.1814,5.1945a1.072,1.072,0,0,1-1.2491,1.0192A9.3014,9.3014,0,0,1,11.1488,26.46,1.0713,1.0713,0,0,1,10.96,24.8605Z"></path>
        <path d="M19.2025,19.7222l4.9412,1.6058a1.0713,1.0713,0,0,1,.6363,1.4794,9.3022,9.3022,0,0,1-2.4707,3.1663,1.072,1.072,0,0,1-1.5914-.2581l-2.7543-4.4078A1.0707,1.0707,0,0,1,19.2025,19.7222Z"></path>
        <path d="M24.2273,16.57l-4.9948,1.4321A1.0706,1.0706,0,0,1,18.05,16.3742l2.906-4.3078A1.0706,1.0706,0,0,1,22.55,11.86,9.2168,9.2168,0,0,1,24.9135,15.11,1.0729,1.0729,0,0,1,24.2273,16.57Z"></path>
        <path d="M12.5561,4.45a14.9542,14.9542,0,0,0-2.5676.9459,1.07,1.07,0,0,0-.4636,1.5013l4.8819,8.4557a1.0707,1.0707,0,0,0,1.9979-.5353V5.0534A1.07,1.07,0,0,0,15.2526,3.985,14.9577,14.9577,0,0,0,12.5561,4.45Z"></path>
        <rect id="_Transparent_Rectangle_" width="32" height="32"></rect>
      </symbol>
      <symbol viewBox="0 0 0 0" id="sprites">
        <symbol version="1.1" xmlns="http://www.w3.org/2000/svg" xmlns:xlink="http://www.w3.org/1999/xlink" xmlnsSketch="http://www.bohemiancoding.com/sketch/ns" viewBox="0 0 32 32" id="chevron">
          <title>chevron-down-circle</title>
          <desc>Created with Sketch Beta.</desc>
          <defs></defs>
          <g id="Page-1" stroke="none" stroke-width="1" fill="none" fill-rule="evenodd" sketchType="MSPage">
            <g id="Icon-Set-Filled" sketchType="MSLayerGroup" transform="translate(-206.000000, -1089.000000)" fill="#000000">
              <path d="M230.536,1101.88 L222.879,1109.54 C222.639,1109.78 222.311,1109.85 222,1109.79 C221.689,1109.85 221.361,1109.78 221.122,1109.54 L213.464,1101.88 C213.074,1101.49 213.074,1100.86 213.464,1100.46 C213.855,1100.07 214.488,1100.07 214.879,1100.46 L222,1107.59 L229.121,1100.46 C229.512,1100.07 230.145,1100.07 230.536,1100.46 C230.926,1100.86 230.926,1101.49 230.536,1101.88 L230.536,1101.88 Z M222,1089 C213.164,1089 206,1096.16 206,1105 C206,1113.84 213.164,1121 222,1121 C230.837,1121 238,1113.84 238,1105 C238,1096.16 230.837,1089 222,1089 L222,1089 Z" id="chevron-down-circle" sketchType="MSShapeGroup"></path>
            </g>
          </g>
        </symbol>
        <symbol fill="#ffffff" xmlns="http://www.w3.org/2000/svg" viewBox="0 0 24 24" id="menu">
          <path d="M4 6H20M4 12H20M4 18H20" stroke="#000000" stroke-width="2" stroke-linecap="round" stroke-linejoin="round"></path>
        </symbol>
        <symbol viewBox="0 0 0 0" id="sprites">
          <symbol xmlns="http://www.w3.org/2000/svg" viewBox="0 0 24 24" id="line">
            <path d="M23 13H1v-2h22z"></path>
            <path fill="none" d="M0 0h24v24H0z"></path>
          </symbol>
          <symbol viewBox="0 0 0 0" id="sprites">
            <symbol version="1" xmlns="http://www.w3.org/2000/svg" enable-background="new 0 0 48 48" viewBox="0 0 48 48" id="checkmark">
              <polygon fill="#43A047" points="40.6,12.1 17,35.7 7.4,26.1 4.6,29 17,41.3 43.4,14.9"></polygon>
            </symbol>
            <symbol fill="#ffffff" xmlns="http://www.w3.org/2000/svg" viewBox="0 0 24 24" id="quote">
              <path fill-rule="evenodd" clip-rule="evenodd" d="M9.62231 6.78278C10.0546 6.43909 10.1265 5.81001 9.78277 5.3777C9.43908 4.94539 8.81001 4.87354 8.37769 5.21724C4.73471 8.11342 4 11.8784 4 16C4 17.6569 5.34315 19 7 19C8.65685 19 10 17.6569 10 16C10 14.3432 8.65685 13 7 13C6.71233 13 6.43412 13.0405 6.17076 13.1161C6.5162 10.5872 7.45738 8.50391 9.62231 6.78278ZM20 16C20 17.6569 18.6569 19 17 19C15.3431 19 14 17.6569 14 16C14 11.8784 14.7347 8.11342 18.3777 5.21724C18.81 4.87354 19.4391 4.94539 19.7828 5.3777C20.1265 5.81001 20.0546 6.43909 19.6223 6.78278C17.4574 8.50391 16.5162 10.5872 16.1708 13.1161C16.4341 13.0405 16.7123 13 17 13C18.6569 13 20 14.3432 20 16Z" fill="#ffffff"></path>
            </symbol>
            <symbol fill="none" xmlns="http://www.w3.org/2000/svg" viewBox="0 0 24 24" id="settings">
              <rect width="24" height="24" fill="white"></rect>
              <path d="M13.5 2L13.9961 1.93798C13.9649 1.68777 13.7522 1.5 13.5 1.5V2ZM10.5 2V1.5C10.2478 1.5 10.0351 1.68777 10.0039 1.93798L10.5 2ZM13.7747 4.19754L13.2786 4.25955C13.3047 4.46849 13.4589 4.63867 13.6642 4.68519L13.7747 4.19754ZM16.2617 5.22838L15.995 5.6513C16.1731 5.76362 16.4024 5.75233 16.5687 5.62306L16.2617 5.22838ZM18.0104 3.86826L18.364 3.51471C18.1857 3.3364 17.9025 3.31877 17.7034 3.47359L18.0104 3.86826ZM20.1317 5.98958L20.5264 6.29655C20.6812 6.09751 20.6636 5.81434 20.4853 5.63603L20.1317 5.98958ZM18.7716 7.73831L18.3769 7.43134C18.2477 7.59754 18.2364 7.82693 18.3487 8.00503L18.7716 7.73831ZM19.8025 10.2253L19.3148 10.3358C19.3613 10.5411 19.5315 10.6953 19.7404 10.7214L19.8025 10.2253ZM22 10.5H22.5C22.5 10.2478 22.3122 10.0351 22.062 10.0039L22 10.5ZM22 13.5L22.062 13.9961C22.3122 13.9649 22.5 13.7522 22.5 13.5H22ZM19.8025 13.7747L19.7404 13.2786C19.5315 13.3047 19.3613 13.4589 19.3148 13.6642L19.8025 13.7747ZM18.7716 16.2617L18.3487 15.995C18.2364 16.1731 18.2477 16.4025 18.3769 16.5687L18.7716 16.2617ZM20.1317 18.0104L20.4853 18.364C20.6636 18.1857 20.6812 17.9025 20.5264 17.7034L20.1317 18.0104ZM18.0104 20.1317L17.7034 20.5264C17.9025 20.6812 18.1857 20.6636 18.364 20.4853L18.0104 20.1317ZM16.2617 18.7716L16.5687 18.3769C16.4024 18.2477 16.1731 18.2364 15.995 18.3487L16.2617 18.7716ZM13.7747 19.8025L13.6642 19.3148C13.4589 19.3613 13.3047 19.5315 13.2786 19.7404L13.7747 19.8025ZM13.5 22V22.5C13.7522 22.5 13.9649 22.3122 13.9961 22.062L13.5 22ZM10.5 22L10.0039 22.062C10.0351 22.3122 10.2478 22.5 10.5 22.5V22ZM10.2253 19.8025L10.7214 19.7404C10.6953 19.5315 10.5411 19.3613 10.3358 19.3148L10.2253 19.8025ZM7.73832 18.7716L8.00504 18.3487C7.82694 18.2364 7.59756 18.2477 7.43135 18.3769L7.73832 18.7716ZM5.98959 20.1317L5.63604 20.4853C5.81435 20.6636 6.09752 20.6812 6.29656 20.5264L5.98959 20.1317ZM3.86827 18.0104L3.4736 17.7034C3.31878 17.9025 3.33641 18.1857 3.51472 18.364L3.86827 18.0104ZM5.22839 16.2617L5.62307 16.5687C5.75234 16.4025 5.76363 16.1731 5.65131 15.995L5.22839 16.2617ZM4.19754 13.7747L4.68519 13.6642C4.63867 13.4589 4.46849 13.3047 4.25955 13.2786L4.19754 13.7747ZM2 13.5H1.5C1.5 13.7522 1.68777 13.9649 1.93798 13.9961L2 13.5ZM2 10.5L1.93798 10.0039C1.68777 10.0351 1.5 10.2478 1.5 10.5H2ZM4.19754 10.2253L4.25955 10.7214C4.46849 10.6953 4.63867 10.5411 4.68519 10.3358L4.19754 10.2253ZM5.22839 7.73831L5.65131 8.00503C5.76363 7.82693 5.75234 7.59755 5.62307 7.43134L5.22839 7.73831ZM3.86827 5.98959L3.51472 5.63603C3.33641 5.81434 3.31878 6.09751 3.47359 6.29656L3.86827 5.98959ZM5.98959 3.86827L6.29656 3.47359C6.09752 3.31878 5.81434 3.33641 5.63604 3.51471L5.98959 3.86827ZM7.73832 5.22839L7.43135 5.62306C7.59755 5.75233 7.82694 5.76363 8.00504 5.6513L7.73832 5.22839ZM10.2253 4.19754L10.3358 4.68519C10.5411 4.63867 10.6953 4.46849 10.7214 4.25955L10.2253 4.19754ZM13.5 1.5H10.5V2.5H13.5V1.5ZM14.2708 4.13552L13.9961 1.93798L13.0039 2.06202L13.2786 4.25955L14.2708 4.13552ZM16.5284 4.80547C15.7279 4.30059 14.8369 3.92545 13.8851 3.70989L13.6642 4.68519C14.503 4.87517 15.2886 5.20583 15.995 5.6513L16.5284 4.80547ZM16.5687 5.62306L18.3174 4.26294L17.7034 3.47359L15.9547 4.83371L16.5687 5.62306ZM17.6569 4.22182L19.7782 6.34314L20.4853 5.63603L18.364 3.51471L17.6569 4.22182ZM19.7371 5.68261L18.3769 7.43134L19.1663 8.04528L20.5264 6.29655L19.7371 5.68261ZM20.2901 10.1149C20.0746 9.16313 19.6994 8.27213 19.1945 7.47158L18.3487 8.00503C18.7942 8.71138 19.1248 9.49695 19.3148 10.3358L20.2901 10.1149ZM22.062 10.0039L19.8645 9.72917L19.7404 10.7214L21.938 10.9961L22.062 10.0039ZM22.5 13.5V10.5H21.5V13.5H22.5ZM19.8645 14.2708L22.062 13.9961L21.938 13.0039L19.7404 13.2786L19.8645 14.2708ZM19.1945 16.5284C19.6994 15.7279 20.0746 14.8369 20.2901 13.8851L19.3148 13.6642C19.1248 14.503 18.7942 15.2886 18.3487 15.995L19.1945 16.5284ZM20.5264 17.7034L19.1663 15.9547L18.3769 16.5687L19.7371 18.3174L20.5264 17.7034ZM18.364 20.4853L20.4853 18.364L19.7782 17.6569L17.6569 19.7782L18.364 20.4853ZM15.9547 19.1663L17.7034 20.5264L18.3174 19.7371L16.5687 18.3769L15.9547 19.1663ZM13.8851 20.2901C14.8369 20.0746 15.7279 19.6994 16.5284 19.1945L15.995 18.3487C15.2886 18.7942 14.503 19.1248 13.6642 19.3148L13.8851 20.2901ZM13.9961 22.062L14.2708 19.8645L13.2786 19.7404L13.0039 21.938L13.9961 22.062ZM10.5 22.5H13.5V21.5H10.5V22.5ZM9.72917 19.8645L10.0039 22.062L10.9961 21.938L10.7214 19.7404L9.72917 19.8645ZM7.4716 19.1945C8.27214 19.6994 9.16314 20.0746 10.1149 20.2901L10.3358 19.3148C9.49696 19.1248 8.71139 18.7942 8.00504 18.3487L7.4716 19.1945ZM6.29656 20.5264L8.04529 19.1663L7.43135 18.3769L5.68262 19.7371L6.29656 20.5264ZM3.51472 18.364L5.63604 20.4853L6.34315 19.7782L4.22183 17.6569L3.51472 18.364ZM4.83372 15.9547L3.4736 17.7034L4.26295 18.3174L5.62307 16.5687L4.83372 15.9547ZM3.70989 13.8851C3.92545 14.8369 4.30059 15.7279 4.80547 16.5284L5.65131 15.995C5.20584 15.2886 4.87517 14.503 4.68519 13.6642L3.70989 13.8851ZM1.93798 13.9961L4.13552 14.2708L4.25955 13.2786L2.06202 13.0039L1.93798 13.9961ZM1.5 10.5V13.5H2.5V10.5H1.5ZM4.13552 9.72917L1.93798 10.0039L2.06202 10.9961L4.25955 10.7214L4.13552 9.72917ZM4.80547 7.47159C4.30059 8.27213 3.92545 9.16313 3.70989 10.1149L4.68519 10.3358C4.87517 9.49696 5.20583 8.71138 5.65131 8.00503L4.80547 7.47159ZM3.47359 6.29656L4.83371 8.04528L5.62307 7.43134L4.26295 5.68262L3.47359 6.29656ZM5.63604 3.51471L3.51472 5.63603L4.22182 6.34314L6.34314 4.22182L5.63604 3.51471ZM8.04529 4.83371L6.29656 3.47359L5.68262 4.26294L7.43135 5.62306L8.04529 4.83371ZM10.1149 3.70989C9.16313 3.92545 8.27214 4.30059 7.4716 4.80547L8.00504 5.6513C8.71139 5.20583 9.49696 4.87517 10.3358 4.68519L10.1149 3.70989ZM10.0039 1.93798L9.72917 4.13552L10.7214 4.25955L10.9961 2.06202L10.0039 1.93798Z" fill="#000000"></path>
              <circle cx="12" cy="12" r="4" stroke="#000000" stroke-linejoin="round"></circle>
            </symbol>
            <symbol fill="#2584ff" version="1.1" id="wordpress" xmlns="http://www.w3.org/2000/svg" xmlns:xlink="http://www.w3.org/1999/xlink" xml:space="preserve" viewBox="0 0 96.24 96.24">
              <g>
                <path d="M48.122,0C21.587,0,0.001,21.585,0.001,48.118c0,26.535,21.587,48.122,48.12,48.122c26.532,0,48.117-21.587,48.117-48.122
		C96.239,21.586,74.654,0,48.122,0z M4.857,48.118c0-6.271,1.345-12.227,3.746-17.606l20.638,56.544
		C14.81,80.042,4.857,65.243,4.857,48.118z M48.122,91.385c-4.247,0-8.346-0.623-12.222-1.763L48.88,51.903l13.301,36.433
		c0.086,0.215,0.191,0.411,0.308,0.596C57.992,90.514,53.16,91.385,48.122,91.385z M54.083,27.834
		c2.604-0.137,4.953-0.412,4.953-0.412c2.33-0.276,2.057-3.701-0.277-3.564c0,0-7.007,0.549-11.532,0.549
		c-4.25,0-11.396-0.549-11.396-0.549c-2.332-0.137-2.604,3.427-0.273,3.564c0,0,2.208,0.275,4.537,0.412l6.74,18.469l-9.468,28.395
		L21.615,27.835c2.608-0.136,4.952-0.412,4.952-0.412c2.33-0.275,2.055-3.702-0.278-3.562c0,0-7.004,0.549-11.53,0.549
		c-0.813,0-1.77-0.021-2.784-0.052C19.709,12.611,33.008,4.856,48.122,4.856c11.265,0,21.519,4.306,29.215,11.357
		c-0.187-0.01-0.368-0.035-0.562-0.035c-4.248,0-7.264,3.702-7.264,7.679c0,3.564,2.055,6.582,4.248,10.146
		c1.647,2.882,3.567,6.585,3.567,11.932c0,3.704-1.422,8-3.293,13.986l-4.315,14.421L54.083,27.834z M69.871,85.516l13.215-38.208
		c2.471-6.171,3.29-11.106,3.29-15.497c0-1.591-0.104-3.07-0.292-4.449c3.38,6.163,5.303,13.236,5.301,20.758
		C91.384,64.08,82.732,78.016,69.871,85.516z"></path>
              </g>
            </symbol>
          </symbol>
        </symbol>
      </symbol>
    </symbol>
    <symbol fill="none" xmlns="http://www.w3.org/2000/svg" stroke="#ffffff" viewBox="0 0 24 24" id="white-menu">
      <g id="SVGRepo_bgCarrier" stroke-width="0"></g>
      <g id="SVGRepo_tracerCarrier" stroke-linecap="round" stroke-linejoin="round"></g>
      <g id="SVGRepo_iconCarrier">
        <path d="M4 6H20M4 12H20M4 18H20" stroke="#ffffff" stroke-width="2" stroke-linecap="round" stroke-linejoin="round"></path>
      </g>
    </symbol>
  </symbol>
</svg>